# xmcd
# 
# Track frame offsets:
#     150
#     38195
#     59387
#     82087
#     101502
#     133750
#     153545
#     177712
# 
# Disc length: 2790
# 
# Revision: 15
# Processed by: cddbd v1.5.2PL0 Copyright (c) Steve Scherf et al.
# Submitted via: BonkEnc v1.0.15
# 
DISCID=6f0ae408
DTITLE=Peter Gabriel - Plays Live [CD 2 of 2)
DYEAR=1983
DGENRE=Progressive Rock
TTITLE0=San Jacinto
TTITLE1=Solsbury Hill
TTITLE2=No Self Control
TTITLE3=I Don't Remember
TTITLE4=Shock The Monkey
TTITLE5=Humdrum
TTITLE6=On The Air
TTITLE7=Biko
EXTD=
EXTT0=
EXTT1=
EXTT2=
EXTT3=
EXTT4=
EXTT5=
EXTT6=
EXTT7=
PLAYORDER=
